<?xml version="1.0" encoding="utf-8"?>
<!-- Generator: Adobe Illustrator 24.1.1, SVG Export Plug-In . SVG Version: 6.00 Build 0)  -->
<svg version="1.1" id="Layer_1" xmlns="http://www.w3.org/2000/svg" xmlns:xlink="http://www.w3.org/1999/xlink" x="0px" y="0px"
	 viewBox="0 0 767 767" style="enable-background:new 0 0 767 767;" xml:space="preserve">
<style type="text/css">
	.st0{enable-background:new    ;}
	.st1{fill:#FFFFFF;}
</style>
<g id="Layer_2_1_">
	<g id="Layer_1-2">
		<g class="st0">
			<path class="st1" d="M47.4,221.7l36.4,19.8l-2.3,4.2l-41.2-22.5l3.6-6.7l42.8,5.6l-27.9-32.8l3.7-6.8l41.2,22.5l-2.3,4.2
				L65,189.4l28.7,34.1l-2.1,3.8L47.4,221.7z"/>
		</g>
		<g class="st0">
			<path class="st1" d="M99.7,187.7l8.1,11.9l-3,4.1l-27.7-41.9l3.1-4.3l48.4,13.5l-3,4.1l-13.8-4.1L99.7,187.7z M97,183.6
				l10.3-14.1l-24.9-7.4L97,183.6z"/>
		</g>
		<g class="st0">
			<path class="st1" d="M110.2,129l31.2,28.7l-3.2,3.5L107,132.5L93.7,147l-3.4-3.1l29.8-32.5l3.4,3.1L110.2,129z"/>
		</g>
		<g class="st0">
			<path class="st1" d="M145.9,95.4l27.2,32.5l-3.6,3.1l-27.2-32.5l-15.1,12.6l-2.9-3.5L158,79.3l2.9,3.5L145.9,95.4z"/>
		</g>
		<g class="st0">
			<path class="st1" d="M178.7,88.8l18.9-12.4l2.5,3.8l-19,12.3l10.1,15.5l22.5-14.7l2.5,3.8l-26.5,17.3L164,75.1l26.5-17.3l2.5,3.8
				l-22.5,14.7L178.7,88.8z"/>
		</g>
		<g class="st0">
			<path class="st1" d="M255.1,78.3l-15.8,6.5l-17.9-43.2l15.8-6.5c11.3-4.6,24.4,1.3,29.3,13.2C271.5,60.2,266.4,73.7,255.1,78.3z
				 M242,78.8l10.8-4.5c7.9-3.3,13-13,10.1-22.4l-0.1-0.2l0,0c0,0,0-0.1,0-0.1l0-0.1l0-0.1c-0.1-0.4-0.3-0.9-0.5-1.3
				c0-0.1-0.1-0.2-0.2-0.3l-0.1-0.1l0,0l0,0c-4.2-9.5-15.2-13.5-23.6-10L227.6,44L242,78.8z"/>
		</g>
		<g class="st0">
			<path class="st1" d="M276,41.2l21.7-6.1l1.2,4.4l-21.7,6l5,17.7l25.8-7.2l1.2,4.4L278.8,69l-12.7-45.2l30.4-8.5l1.2,4.4
				l-25.8,7.2L276,41.2z"/>
		</g>
		<g class="st0">
			<path class="st1" d="M343.9,41.4c1,6-2,14.4-14.5,16.5c-11.1,1.8-18.1-5.2-19.2-11.9l4.7-0.8c0.8,4.9,6.3,9.3,14.2,8
				c8.5-1.4,10.9-6.6,10.1-11.5c-2.2-13.1-28.2,1.7-31.3-17.2c-1.1-6.8,3.5-13.1,13.4-14.8c9.2-1.5,15.9,3.2,17.2,11.2l-4.7,0.8
				c-0.8-5.1-5.3-8.3-11.7-7.3c-6.3,1-10.2,4.4-9.4,9.5C314.9,37.6,340.9,22.7,343.9,41.4z"/>
		</g>
		<g class="st0">
			<path class="st1" d="M349.9,54.1l-4.4-46.8l4.8-0.4l4.4,46.8L349.9,54.1z"/>
		</g>
		<g class="st0">
			<path class="st1" d="M381.4,29.3l19-0.3l0.4,23.2l-4,0.1l-0.8-5.1c-3.8,4-9.1,6.2-15.5,6.3c-13.4,0.2-22.3-9.2-22.5-24.1
				c-0.1-7.6,2-13.9,6.2-18.3c3.8-4.1,9.3-6.3,15.5-6.4c9.5-0.2,17.2,4.4,20.6,14.8l-5,0.1c-2.8-7.4-9.4-10.2-15.5-10.1
				c-8.5,0.1-17.2,5.7-17,19.9c0.2,14.7,9.8,19.5,17.7,19.4c6.4-0.1,15.6-2.9,15.4-15l-14.3,0.2L381.4,29.3z"/>
		</g>
		<g class="st0">
			<path class="st1" d="M414.7,12.1l-5,41.1l-4.7-0.6l5.6-46.5l6.2,0.8l23.2,44.5l5-41.1l4.7,0.6l-5.6,46.5l-6.1-0.7L414.7,12.1z"/>
		</g>
		<g class="st0">
			<path class="st1" d="M480.3,52.6L471.6,64l-4.8-1.6l31.2-39.2l5,1.6l2.2,50.1l-4.8-1.6L500,59L480.3,52.6z M483.3,48.8l16.6,5.4
				l-0.7-26L483.3,48.8z"/>
		</g>
		<g class="st0">
			<path class="st1" d="M534.3,63l17.3,8l-9.8,21l-3.7-1.7l1.5-5c-5.1,1.9-10.9,1.6-16.7-1.1c-12.2-5.7-16-18-9.7-31.5
				c3.2-6.9,7.9-11.6,13.6-13.8c5.2-2,11.2-1.6,16.7,1c8.6,4,13.5,11.4,12.1,22.3l-4.5-2.1c0.7-7.9-4-13.3-9.6-15.9
				c-7.7-3.6-18-2.4-24,10.5c-6.2,13.3,0.3,21.8,7.4,25.1c5.8,2.7,15.3,4.2,20.4-6.8l-13-6L534.3,63z"/>
		</g>
		<g class="st0">
			<path class="st1" d="M564,73.5l19.1,11.9l-2.4,3.9l-19-12l-9.8,15.6l22.7,14.2l-2.4,3.9l-26.7-16.7l24.9-39.8L597,71.2l-2.4,3.9
				l-22.7-14.2L564,73.5z"/>
		</g>
		<g class="st0">
			<path class="st1" d="M606.2,84.4l-26.1,32.4l-3.7-3L606,77.1l4.9,4l-3.9,50.3L633.1,99l3.7,3l-29.6,36.6l-4.8-3.9L606.2,84.4z"/>
		</g>
		<g class="st0">
			<path class="st1" d="M652,160.8c-11.2,7.3-21.5,3.5-27.9-3.3c-9.2-9.8-8.2-22.7,2.6-32.8c5.5-5.2,11.6-7.9,17.8-7.7
				c5.6,0.1,11,2.6,15.2,7.1c7.6,8,8.3,18,2.3,27.1l-3.4-3.6c4.8-7.9,2.3-15.3-2.4-20.3c-5.8-6.2-15.9-8.8-26.2,0.9
				c-10.6,10-8.3,19.9-2.4,26.1c6.1,6.4,13.6,7.5,21.1,3L652,160.8z"/>
		</g>
		<g class="st0">
			<path class="st1" d="M696.5,170.9l-31.8,4.2l-15.2,11.4l-2.9-3.8l15.2-11.4l13-29.3l3.3,4.4l-10.4,23.5l25.5-3.4L696.5,170.9z"/>
		</g>
		<g class="st0">
			<path class="st1" d="M670.8,219l40.9-23.1l2.3,4.2l-40.9,23.1L670.8,219z"/>
		</g>
		<g class="st0">
			<path class="st1" d="M683.4,243.3l-7.2-15.6l42.6-19.7l7.2,15.6c5.1,11.1-0.3,24.6-12,30C702.3,259,688.6,254.4,683.4,243.3z
				 M682.4,230.2l4.9,10.7c3.6,7.8,13.5,12.5,22.9,9.2l0.2-0.1l0,0c0,0,0.1,0,0.1,0l0.1,0l0.1,0c0.4-0.2,0.9-0.3,1.3-0.6
				c0.1-0.1,0.2-0.1,0.3-0.2l0.1-0.1l0,0l0,0c9.4-4.7,12.9-15.8,9.1-24.1l-4.9-10.7L682.4,230.2z"/>
		</g>
		<g class="st0">
			<path class="st1" d="M721.3,262.6l6.9,21.4l-4.4,1.4L717,264l-17.5,5.7l8.2,25.5l-4.4,1.4l-9.7-30l44.7-14.4l9.7,30l-4.4,1.4
				l-8.2-25.5L721.3,262.6z"/>
		</g>
		<g class="st0">
			<path class="st1" d="M746.4,298.2l-40.7,7.9l-0.9-4.7l46-8.9l1.2,6.1l-35.2,35.8l40.6-7.9l0.9,4.7l-46,8.9l-1.2-6L746.4,298.2z"
				/>
		</g>
		<g class="st0">
			<path class="st1" d="M756.4,364.9l-42.3,2.4l-0.3-4.7l42.3-2.4l-1.1-19.6l4.6-0.3l2.5,44l-4.6,0.3L756.4,364.9z"/>
		</g>
		<g class="st0">
			<path class="st1" d="M714.4,389.1l47,1.1l-0.1,4.8l-47-1.1L714.4,389.1z"/>
		</g>
		<g class="st0">
			<path class="st1" d="M754.5,425.9l-42.2-4.4l0.5-4.7l42.2,4.4l2.1-19.5l4.6,0.5L757,446l-4.6-0.5L754.5,425.9z"/>
		</g>
		<g class="st0">
			<path class="st1" d="M747.7,485.8L724,464.5l-18.4-4.2l1-4.6l18.4,4.2l30.6-9l-1.2,5.3l-24.5,7.3l19,17.1L747.7,485.8z"/>
		</g>
		<g class="st0">
			<path class="st1" d="M688.2,513.1l6.8-15.7l43.1,18.6l-6.8,15.7c-4.9,11.2-18.5,16.2-30.4,11S683.3,524.3,688.2,513.1z
				 M697.3,503.5l-4.7,10.8c-3.4,7.9-0.3,18.4,8.4,23.2l0.2,0.1l0,0c0,0,0.1,0,0.1,0.1l0.1,0l0.1,0c0.4,0.2,0.8,0.4,1.3,0.6
				c0.1,0,0.2,0.1,0.3,0.1l0.1,0l0,0l0,0c9.7,3.9,20.4-0.9,24-9.3l4.7-10.8L697.3,503.5z"/>
		</g>
		<g class="st0">
			<path class="st1" d="M699,554.1l-11.3,19.5l-4-2.3l11.4-19.4l-15.9-9.3l-13.5,23.1l-4-2.3l15.9-27.2l40.6,23.6l-15.9,27.2l-4-2.3
				l13.5-23.1L699,554.1z"/>
		</g>
		<g class="st0">
			<path class="st1" d="M650.1,601.4c-4.9-3.6-8.6-11.7-1.1-21.9c6.7-9.1,16.6-8.9,22.1-4.8l-2.8,3.8c-4-2.9-11-2.2-15.8,4.2
				c-5.1,6.9-3.2,12.3,0.8,15.2c10.7,7.9,19-20.9,34.4-9.5c5.6,4.1,6.6,11.9,0.7,19.9c-5.6,7.5-13.6,8.8-20.1,4l2.8-3.8
				c4.2,3.1,9.6,2.3,13.5-3c3.8-5.1,4.3-10.3,0.2-13.3C673.6,583.8,665.4,612.6,650.1,601.4z"/>
		</g>
		<g class="st0">
			<path class="st1" d="M637,596.3l35.7,30.5l-3.1,3.6L633.9,600L637,596.3z"/>
		</g>
		<g class="st0">
			<path class="st1" d="M631.5,636.3L618,649.7l-16.3-16.5l2.9-2.8l4.1,3.2c0-5.5,2.2-10.8,6.8-15.3c9.5-9.5,22.4-8.7,32.9,1.8
				c5.3,5.4,8.2,11.4,8.2,17.6c0,5.6-2.3,11-6.7,15.3c-6.7,6.7-15.4,8.7-25.1,3.6l3.6-3.5c7.2,3.4,13.8,0.9,18.2-3.5
				c6-6,8.5-16.1-1.5-26.2c-10.3-10.4-20.6-7.3-26.2-1.8c-4.5,4.5-9.2,12.9-0.7,21.5l10.2-10.1L631.5,636.3z"/>
		</g>
		<g class="st0">
			<path class="st1" d="M619.6,671.9l-24.9-33.2l3.8-2.9l28.2,37.6l-5,3.8L574,661.1l24.9,33.2l-3.8,2.9l-28.2-37.6l4.9-3.7
				L619.6,671.9z"/>
		</g>
		<g class="st0">
			<path class="st1" d="M536.8,729.4l-4.3,2.1l-12.6-25.8c-2.9-5.9-6.4-18.2,8.2-25.3c14.6-7.1,22.1,3.2,25,9.1l12.6,25.8l-4.3,2.1
				l-13-26.6c-3.7-7.5-10.1-10.1-18.2-6.1c-8.3,4-10,10.7-6.4,18.2L536.8,729.4z"/>
		</g>
		<g class="st0">
			<path class="st1" d="M507.1,690.7l17.4,43.7l-4.4,1.8l-17.4-43.7L507.1,690.7z"/>
		</g>
		<g class="st0">
			<path class="st1" d="M485.1,747.9l7.4-51.6l5-1.6l-7.4,51.6L485.1,747.9z"/>
		</g>
		<g class="st0">
			<path class="st1" d="M443.8,756.7l-4.7,0.9l-5.5-28.1c-1.3-6.5-1.4-19.2,14.5-22.3c15.9-3.1,20.5,8.8,21.7,15.3l5.5,28.1
				l-4.7,0.9l-5.6-29c-1.6-8.2-7.1-12.4-16-10.6c-9,1.7-12.5,7.7-10.9,15.8L443.8,756.7z"/>
		</g>
		<g class="st0">
			<path class="st1" d="M408.3,736.8l-17.8-21.9l5.8-0.4l14.6,18l11.7-20l5.8-0.4l-14.3,24.4l18.3,22.4l-5.8,0.4l-15.1-18.5
				l-12,20.6l-5.8,0.4L408.3,736.8z"/>
		</g>
		<g class="st0">
			<path class="st1" d="M350,712.7l17,1.9l-5.2,46.5l-17-1.9c-12.1-1.4-20.8-12.9-19.4-25.7S337.9,711.4,350,712.7z M361.7,718.6
				l-11.7-1.3c-8.5-0.9-17.6,5.1-19.6,14.8l0,0.2l0,0c0,0,0,0.1,0,0.1l0,0.1l0,0.1c-0.1,0.4-0.2,0.9-0.2,1.4c0,0.1,0,0.2,0,0.4
				l0,0.1l0,0.1l0,0.1c-0.9,10.4,6.8,19.1,15.8,20.1l11.7,1.3L361.7,718.6z"/>
		</g>
		<g class="st0">
			<path class="st1" d="M314,735.3l-21.8-5l1-4.4l21.8,5l4.1-17.9l-26-5.9l1-4.4l30.6,6.9l-10.3,45.6l-30.6-6.9l1-4.4l26,5.9
				L314,735.3z"/>
		</g>
		<g class="st0">
			<path class="st1" d="M254.3,702.8c2-5.8,8.7-11.7,20.6-7.5c10.7,3.7,13.4,13.2,11.2,19.7l-4.5-1.6c1.6-4.7-1.1-11.2-8.7-13.8
				c-8.1-2.8-12.7,0.6-14.3,5.3c-4.4,12.5,25.6,12,19.3,30.1c-2.3,6.5-9.4,9.9-18.8,6.6c-8.8-3.1-12.4-10.4-9.8-18.1l4.5,1.6
				c-1.7,4.9,0.7,9.8,6.8,12c6,2.1,11.1,1,12.8-3.8C278,720,248,720.7,254.3,702.8z"/>
		</g>
		<g class="st0">
			<path class="st1" d="M255.2,688.7l-18.5,43.2l-4.4-1.9l18.5-43.2L255.2,688.7z"/>
		</g>
		<g class="st0">
			<path class="st1" d="M215.4,695.3l-16.8-9l10.9-20.4l3.6,1.9l-1.8,4.9c5.2-1.7,11-1,16.6,2c11.8,6.3,15,18.9,8,32
				c-3.6,6.7-8.5,11.2-14.4,13c-5.3,1.7-11.2,1-16.6-1.9c-8.4-4.5-12.9-12.2-10.9-22.9l4.4,2.4c-1.1,7.8,3.2,13.5,8.7,16.4
				c7.5,4,17.9,3.3,24.6-9.2c6.9-12.9,0.9-21.8-6-25.5c-5.6-3-15-5-20.7,5.7l12.6,6.7L215.4,695.3z"/>
		</g>
		<g class="st0">
			<path class="st1" d="M178,694.5l24.3-33.7l3.9,2.8l-27.5,38.1l-5.1-3.7l1.2-50.3l-24.3,33.6l-3.9-2.8l27.5-38.1l5,3.6L178,694.5z
				"/>
		</g>
		<g class="st0">
			<path class="st1" d="M77.1,607.3l44.7-20.2l4.2,4.8l-23,36.8l39.5-17.9l4.2,4.8l-26,41.6l-3.3-3.8l23.1-36.6l-39.3,18l-2.3-2.6
				l-2.3-2.6l23.1-36.6l-39.3,18L77.1,607.3z"/>
		</g>
		<g class="st0">
			<path class="st1" d="M86.7,585L74.6,566l3.8-2.5l12.1,19l15.5-10l-14.5-22.5l3.8-2.5l17,26.5l-39.5,25.4l-17-26.5l3.8-2.5
				L74.2,593L86.7,585z"/>
		</g>
		<g class="st0">
			<path class="st1" d="M66.9,517.9c6.7-3.3,13.2-1.2,18,8.6l8.1,16.5l-42.2,20.6l-7.8-16c-3.6-7.4-0.1-14.8,6-17.8
				c2.8-1.3,7.7-2.2,11.1,1.2C58,524.4,62.2,520.2,66.9,517.9z M52.8,557.3l14.4-7c-1.6-3.3-3.8-7.8-5.1-10.4
				c-2.8-5.8-6.1-8.1-11.5-5.5c-4.3,2.1-5.8,6.5-2.9,12.5L52.8,557.3z M68.7,522.3c-4.3,2.1-6.5,7.3-3.7,13.1l6.3,12.9l15.4-7.5
				l-6.4-13.1C77.8,522.4,73.9,519.7,68.7,522.3z"/>
		</g>
		<g class="st0">
			<path class="st1" d="M64.7,472.7l4.5,16.5l-45.1,12.2l-4.5-16.5c-3.2-11.7,4.4-24,16.8-27.4S61.5,461,64.7,472.7z M63.5,485.8
				l-3.1-11.3c-2.2-8.2-11.2-14.5-20.9-12.8l-0.2,0l0,0c0,0-0.1,0-0.1,0l-0.1,0l-0.1,0c-0.4,0.1-0.9,0.2-1.4,0.3
				c-0.1,0-0.2,0.1-0.4,0.1l-0.1,0l0,0l0,0c-9.9,3-15.3,13.3-12.9,22.1l3.1,11.3L63.5,485.8z"/>
		</g>
		<g class="st0">
			<path class="st1" d="M30.4,447.4l-3.4-22.3l4.5-0.7l3.3,22.3l18.2-2.8l-4-26.5l4.5-0.7l4.7,31.2l-46.5,7l-4.7-31.2l4.5-0.7
				l4,26.5L30.4,447.4z"/>
		</g>
		<g class="st0">
			<path class="st1" d="M39.2,379.9c6.1-0.2,14,3.8,14.5,16.5c0.4,11.3-7.4,17.3-14.2,17.6l-0.2-4.8c5-0.2,10-5.1,9.7-13.1
				c-0.3-8.6-5.2-11.6-10.1-11.4c-13.2,0.5-1.8,28.2-20.9,28.9c-6.9,0.3-12.6-5.1-13-15.1c-0.4-9.4,5.2-15.4,13.2-15.7l0.2,4.8
				c-5.2,0.2-8.9,4.2-8.7,10.7c0.2,6.4,3.1,10.7,8.2,10.5C31.8,408.3,20.2,380.7,39.2,379.9z"/>
		</g>
		<g class="st0">
			<path class="st1" d="M52.6,375.6l-47-1.4l0.1-4.8l47,1.4L52.6,375.6z"/>
		</g>
		<g class="st0">
			<path class="st1" d="M31.8,341.1l2.2-18.9l23,2.6l-0.5,4l-5.2,0.1c3.5,4.3,5,9.8,4.3,16.2c-1.5,13.3-12,20.9-26.8,19.2
				c-7.5-0.9-13.5-3.8-17.4-8.6c-3.5-4.3-5.1-10.1-4.4-16.2c1.1-9.4,6.6-16.5,17.3-18.5l-0.6,5c-7.7,1.8-11.3,8-12,14.1
				c-1,8.5,3.5,17.8,17.6,19.5c14.6,1.7,20.6-7.2,21.5-15c0.7-6.3-0.8-15.8-12.9-17.2l-1.6,14.2L31.8,341.1z"/>
		</g>
		<g class="st0">
			<path class="st1" d="M18.8,305.9L59,316.1l-1.2,4.6l-45.5-11.6l1.5-6.1l47.2-17.4l-40.2-10.2l1.2-4.6l45.5,11.6l-1.5,6
				L18.8,305.9z"/>
		</g>
	</g>
</g>
</svg>
