<svg xmlns="http://www.w3.org/2000/svg" viewBox="0 0 766.96 766.96"><defs><style>.cls-1{font-size:58px;fill:#fff;font-family:NeutralFaceRegular, Neutral Face;}</style></defs><g id="Layer_2" data-name="Layer 2"><g id="Layer_1-2" data-name="Layer 1"><text class="cls-1" transform="translate(80 248.52) rotate(-61.43)">M</text><text class="cls-1" transform="matrix(0.59, -0.81, 0.81, 0.59, 104.8, 203.65)">A</text><text class="cls-1" transform="translate(124.34 176.32) rotate(-47.47)">t</text><text class="cls-1" transform="translate(153.71 144.17) rotate(-39.99)">t</text><text class="cls-1" transform="matrix(0.84, -0.55, 0.55, 0.84, 187.22, 116.24)">e</text><text class="cls-1" transform="matrix(0.88, -0.47, 0.47, 0.88, 218.31, 96.36)"> </text><text class="cls-1" transform="matrix(0.92, -0.38, 0.38, 0.92, 236.45, 86.03)">d</text><text class="cls-1" transform="translate(275.79 69.81) rotate(-15.65)">e</text><text class="cls-1" transform="translate(311.15 59.88) rotate(-9.35)">s</text><text class="cls-1" transform="translate(346.77 54.44) rotate(-5.34)">i</text><text class="cls-1" transform="translate(356.86 52.87) rotate(-0.93)">g</text><text class="cls-1" transform="matrix(0.99, 0.12, -0.12, 0.99, 401.9, 52.19)">n</text><text class="cls-1" transform="translate(446.25 58.24) rotate(12.76)"> </text><text class="cls-1" transform="translate(466.75 62.39) rotate(18.03)">a</text><text class="cls-1" transform="translate(501.97 73.45) rotate(24.95)">g</text><text class="cls-1" transform="translate(542.72 92.61) rotate(32.02)">e</text><text class="cls-1" transform="matrix(0.78, 0.63, -0.63, 0.78, 573.94, 111.77)">n</text><text class="cls-1" transform="translate(608.58 139.7) rotate(46.71)">c</text><text class="cls-1" transform="matrix(0.6, 0.8, -0.8, 0.6, 637.5, 170.53)">y</text><text class="cls-1" transform="translate(658.03 198.21) rotate(57.82)"> </text><text class="cls-1" transform="translate(669.28 216.31) rotate(60.58)">i</text><text class="cls-1" transform="translate(674.93 224.92) rotate(65.2)">d</text><text class="cls-1" transform="translate(692.69 263.6) rotate(72.09)">e</text><text class="cls-1" transform="matrix(0.19, 0.98, -0.98, 0.19, 704.25, 298.35)">n</text><text class="cls-1" transform="translate(712.67 342.05) rotate(86.75)">t</text><text class="cls-1" transform="translate(714.51 385.98) rotate(91.37)">i</text><text class="cls-1" transform="translate(714.99 396.3) rotate(96.02)">t</text><text class="cls-1" transform="matrix(-0.22, 0.97, -0.97, -0.22, 710, 440.89)">y</text><text class="cls-1" transform="translate(702.02 474.4) rotate(107.8)"> </text><text class="cls-1" transform="translate(696.19 494.44) rotate(113.35)">d</text><text class="cls-1" transform="translate(679.22 533.49) rotate(120.22)">e</text><text class="cls-1" transform="translate(660.76 565.24) rotate(126.47)">s</text><text class="cls-1" transform="matrix(-0.65, 0.76, -0.76, -0.65, 639, 593.97)">i</text><text class="cls-1" transform="translate(632.93 602.27) rotate(135.25)">g</text><text class="cls-1" transform="matrix(-0.8, 0.6, -0.6, -0.8, 601.05, 633.98)">n</text><text class="cls-1" transform="translate(564.98 660.53) rotate(148.6)"> </text><text class="cls-1" transform="translate(547.42 671.87) rotate(153.99)">u</text><text class="cls-1" transform="matrix(-0.93, 0.37, -0.37, -0.93, 509.97, 689.5)">i</text><text class="cls-1" transform="translate(500.45 693.69) rotate(162.31)">/</text><text class="cls-1" transform="matrix(-0.98, 0.19, -0.19, -0.98, 469, 704.02)">u</text><text class="cls-1" transform="translate(428.75 711.98) rotate(175.57)">x</text><text class="cls-1" transform="translate(390.99 714.64) rotate(-179.07)"> </text><text class="cls-1" transform="matrix(-0.99, -0.11, 0.11, -0.99, 370.04, 714.93)">d</text><text class="cls-1" transform="matrix(-0.97, -0.22, 0.22, -0.97, 327.72, 710.35)">e</text><text class="cls-1" transform="translate(291.92 702.19) rotate(-160.8)">s</text><text class="cls-1" transform="translate(258.05 689.93) rotate(-156.76)">i</text><text class="cls-1" transform="translate(248.33 686.6) rotate(-151.92)">g</text><text class="cls-1" transform="translate(208.63 665.51) rotate(-144.2)">n</text><text class="cls-1" transform="matrix(-0.75, -0.66, 0.66, -0.75, 172.61, 638.85)"> </text><text class="cls-1" transform="translate(156.15 626.35) rotate(-131.17)">w</text><text class="cls-1" transform="matrix(-0.54, -0.84, 0.84, -0.54, 114.06, 576.74)">e</text><text class="cls-1" transform="translate(94.31 545.85) rotate(-115.99)">b</text><text class="cls-1" transform="translate(77.94 511.47) rotate(-110.85)"> </text><text class="cls-1" transform="matrix(-0.26, -0.96, 0.96, -0.26, 69.98, 492.2)">d</text><text class="cls-1" transform="matrix(-0.15, -0.99, 0.99, -0.15, 58.84, 451.11)">e</text><text class="cls-1" transform="translate(53.43 414.78) rotate(-92.2)">s</text><text class="cls-1" transform="matrix(0.03, -1, 1, 0.03, 52.47, 378.74)">i</text><text class="cls-1" transform="translate(52.01 368.46) rotate(-83.48)">g</text><text class="cls-1" transform="translate(57.04 323.79) rotate(-75.72)">n</text><text class="cls-1" transform="translate(68.61 280.54) rotate(-70.01)"> </text></g></g></svg>